<svg width="530" height="475" viewBox="0 0 530 475" fill="none" xmlns="http://www.w3.org/2000/svg">
<path d="M152 40C152 31.1634 159.163 24 168 24H511C519.837 24 527 31.1634 527 40V76H168C159.163 76 152 68.8366 152 60V40Z" fill="#4472C4"/>
<path d="M168.533 59H165.353C164.993 59 164.783 58.83 164.723 58.49L161.153 40.22C161.113 39.88 161.283 39.71 161.663 39.71H163.973C164.353 39.71 164.553 39.88 164.573 40.22L167.003 55.94H167.183L170.723 40.16C170.763 39.86 170.943 39.71 171.263 39.71H173.783C174.103 39.71 174.293 39.86 174.353 40.16L177.923 55.94H178.103L180.533 40.25C180.553 39.89 180.753 39.71 181.133 39.71H183.443C183.843 39.71 184.013 39.89 183.953 40.25L180.383 58.49C180.323 58.83 180.123 59 179.783 59H176.603C176.263 59 176.063 58.83 176.003 58.49L172.613 43.31H172.493L169.103 58.49C169.043 58.83 168.853 59 168.533 59ZM188.866 59H186.976C186.636 59 186.466 58.83 186.466 58.49V38.42C186.466 38.08 186.636 37.91 186.976 37.91H188.866C189.206 37.91 189.376 38.08 189.376 38.42V45.29H189.496C189.976 44.23 190.986 43.7 192.526 43.7H193.846C195.306 43.7 196.426 44.1 197.206 44.9C197.986 45.7 198.376 46.85 198.376 48.35V58.49C198.376 58.83 198.196 59 197.836 59H195.946C195.606 59 195.436 58.83 195.436 58.49V48.47C195.436 46.99 194.706 46.25 193.246 46.25H191.836C190.196 46.25 189.376 47.1 189.376 48.8V58.49C189.376 58.83 189.206 59 188.866 59ZM207.484 59H206.314C204.834 59 203.684 58.59 202.864 57.77C202.064 56.95 201.664 55.81 201.664 54.35V48.35C201.664 46.87 202.064 45.73 202.864 44.93C203.684 44.11 204.834 43.7 206.314 43.7H213.034C213.394 43.7 213.574 43.87 213.574 44.21V58.49C213.574 58.83 213.394 59 213.034 59H211.144C210.804 59 210.634 58.83 210.634 58.49V57.41H210.514C210.034 58.47 209.024 59 207.484 59ZM210.634 53.9V46.55C210.634 46.35 210.524 46.25 210.304 46.25H206.734C205.294 46.25 204.574 46.99 204.574 48.47V54.23C204.574 55.71 205.294 56.45 206.734 56.45H208.174C209.814 56.45 210.634 55.6 210.634 53.9ZM217.766 46.25H216.326C216.126 46.25 215.986 46.22 215.906 46.16C215.846 46.08 215.816 45.95 215.816 45.77V44.21C215.816 43.87 215.986 43.7 216.326 43.7H217.766C217.966 43.7 218.066 43.6 218.066 43.4V40.7C218.066 40.36 218.246 40.19 218.606 40.19H220.496C220.836 40.19 221.006 40.36 221.006 40.7V43.4C221.006 43.6 221.116 43.7 221.336 43.7H224.126C224.486 43.7 224.666 43.87 224.666 44.21V45.77C224.666 46.09 224.486 46.25 224.126 46.25H221.336C221.116 46.25 221.006 46.35 221.006 46.55V54.26C221.006 55.72 221.756 56.45 223.256 56.45H224.426C224.786 56.45 224.966 56.62 224.966 56.96V58.52C224.966 58.84 224.786 59 224.426 59H222.806C221.326 59 220.166 58.6 219.326 57.8C218.486 57 218.066 55.87 218.066 54.41V46.55C218.066 46.35 217.966 46.25 217.766 46.25ZM230.023 40.19V41.54C230.023 42.1 229.843 42.81 229.483 43.67L228.193 46.61C228.093 46.79 227.943 46.88 227.743 46.88C227.483 46.88 227.353 46.72 227.353 46.4V40.22C227.353 39.88 227.513 39.71 227.833 39.71H229.543C229.863 39.71 230.023 39.87 230.023 40.19ZM238.772 59H233.252C232.912 59 232.742 58.83 232.742 58.49V57.02C232.742 56.7 232.912 56.54 233.252 56.54H238.292C239.592 56.54 240.242 56.09 240.242 55.19V54.83C240.242 54.03 239.772 53.42 238.832 53L235.562 51.44C234.542 50.96 233.802 50.43 233.342 49.85C232.882 49.27 232.652 48.51 232.652 47.57C232.652 44.99 234.082 43.7 236.942 43.7H241.922C242.242 43.7 242.402 43.87 242.402 44.21V45.68C242.402 46.02 242.242 46.19 241.922 46.19H237.542C236.942 46.19 236.482 46.3 236.162 46.52C235.842 46.72 235.682 46.99 235.682 47.33V47.66C235.682 48.3 236.192 48.86 237.212 49.34L240.512 51.02C241.552 51.48 242.262 52.03 242.642 52.67C243.042 53.29 243.242 54.1 243.242 55.1C243.242 57.7 241.752 59 238.772 59ZM253.947 46.25H252.507C252.307 46.25 252.167 46.22 252.087 46.16C252.027 46.08 251.997 45.95 251.997 45.77V44.21C251.997 43.87 252.167 43.7 252.507 43.7H253.947C254.147 43.7 254.247 43.6 254.247 43.4V40.7C254.247 40.36 254.427 40.19 254.787 40.19H256.677C257.017 40.19 257.187 40.36 257.187 40.7V43.4C257.187 43.6 257.297 43.7 257.517 43.7H260.307C260.667 43.7 260.847 43.87 260.847 44.21V45.77C260.847 46.09 260.667 46.25 260.307 46.25H257.517C257.297 46.25 257.187 46.35 257.187 46.55V54.26C257.187 55.72 257.937 56.45 259.437 56.45H260.607C260.967 56.45 261.147 56.62 261.147 56.96V58.52C261.147 58.84 260.967 59 260.607 59H258.987C257.507 59 256.347 58.6 255.507 57.8C254.667 57 254.247 55.87 254.247 54.41V46.55C254.247 46.35 254.147 46.25 253.947 46.25ZM266.415 59H264.525C264.185 59 264.015 58.83 264.015 58.49V38.42C264.015 38.08 264.185 37.91 264.525 37.91H266.415C266.755 37.91 266.925 38.08 266.925 38.42V45.29H267.045C267.525 44.23 268.535 43.7 270.075 43.7H271.395C272.855 43.7 273.975 44.1 274.755 44.9C275.535 45.7 275.925 46.85 275.925 48.35V58.49C275.925 58.83 275.745 59 275.385 59H273.495C273.155 59 272.985 58.83 272.985 58.49V48.47C272.985 46.99 272.255 46.25 270.795 46.25H269.385C267.745 46.25 266.925 47.1 266.925 48.8V58.49C266.925 58.83 266.755 59 266.415 59ZM290.343 59H283.863C282.383 59 281.233 58.59 280.413 57.77C279.613 56.95 279.213 55.81 279.213 54.35V48.35C279.213 46.87 279.613 45.73 280.413 44.93C281.233 44.11 282.383 43.7 283.863 43.7H286.323C287.803 43.7 288.953 44.11 289.773 44.93C290.593 45.73 291.003 46.87 291.003 48.35V52.16C291.003 52.52 290.823 52.7 290.463 52.7H282.423C282.203 52.7 282.093 52.8 282.093 53V54.29C282.093 55.75 282.823 56.48 284.283 56.48H290.343C290.703 56.48 290.883 56.66 290.883 57.02V58.52C290.883 58.84 290.703 59 290.343 59ZM282.423 50.66H287.793C287.993 50.66 288.093 50.56 288.093 50.36V48.44C288.093 47.68 287.923 47.13 287.583 46.79C287.243 46.43 286.693 46.25 285.933 46.25H284.283C283.523 46.25 282.973 46.43 282.633 46.79C282.293 47.13 282.123 47.68 282.123 48.44V50.36C282.123 50.56 282.223 50.66 282.423 50.66ZM310.756 56.96V58.52C310.756 58.84 310.576 59 310.216 59H305.806C304.326 59 303.176 58.59 302.356 57.77C301.556 56.95 301.156 55.81 301.156 54.35V48.35C301.156 46.87 301.556 45.73 302.356 44.93C303.176 44.11 304.326 43.7 305.806 43.7H310.216C310.576 43.7 310.756 43.87 310.756 44.21V45.77C310.756 46.09 310.576 46.25 310.216 46.25H306.226C304.786 46.25 304.066 46.99 304.066 48.47V54.23C304.066 55.71 304.786 56.45 306.226 56.45H310.216C310.576 56.45 310.756 56.62 310.756 56.96ZM319.135 59H317.965C316.485 59 315.335 58.59 314.515 57.77C313.715 56.95 313.315 55.81 313.315 54.35V48.35C313.315 46.87 313.715 45.73 314.515 44.93C315.335 44.11 316.485 43.7 317.965 43.7H324.685C325.045 43.7 325.225 43.87 325.225 44.21V58.49C325.225 58.83 325.045 59 324.685 59H322.795C322.455 59 322.285 58.83 322.285 58.49V57.41H322.165C321.685 58.47 320.675 59 319.135 59ZM322.285 53.9V46.55C322.285 46.35 322.175 46.25 321.955 46.25H318.385C316.945 46.25 316.225 46.99 316.225 48.47V54.23C316.225 55.71 316.945 56.45 318.385 56.45H319.825C321.465 56.45 322.285 55.6 322.285 53.9ZM331.366 63.23H329.476C329.136 63.23 328.966 63.06 328.966 62.72V44.21C328.966 43.87 329.136 43.7 329.476 43.7H331.366C331.706 43.7 331.876 43.87 331.876 44.21V45.29H331.996C332.476 44.23 333.486 43.7 335.026 43.7H336.556C337.996 43.7 339.096 44.1 339.856 44.9C340.636 45.7 341.026 46.85 341.026 48.35V54.35C341.026 55.83 340.636 56.98 339.856 57.8C339.096 58.6 337.996 59 336.556 59H335.026C333.486 59 332.476 58.47 331.996 57.41H331.876V62.72C331.876 63.06 331.706 63.23 331.366 63.23ZM334.336 56.45H335.926C337.366 56.45 338.086 55.71 338.086 54.23V48.47C338.086 46.99 337.366 46.25 335.926 46.25H334.336C332.696 46.25 331.876 47.1 331.876 48.8V53.9C331.876 55.6 332.696 56.45 334.336 56.45ZM344.644 41.15V38.42C344.644 38.1 344.804 37.94 345.124 37.94H347.074C347.394 37.94 347.554 38.1 347.554 38.42V41.15C347.554 41.49 347.394 41.66 347.074 41.66H345.124C344.804 41.66 344.644 41.49 344.644 41.15ZM344.644 58.49V44.21C344.644 43.87 344.804 43.7 345.124 43.7H347.044C347.384 43.7 347.554 43.87 347.554 44.21V58.49C347.554 58.69 347.514 58.83 347.434 58.91C347.374 58.97 347.254 59 347.074 59H345.154C344.814 59 344.644 58.83 344.644 58.49ZM351.945 46.25H350.505C350.305 46.25 350.165 46.22 350.085 46.16C350.025 46.08 349.995 45.95 349.995 45.77V44.21C349.995 43.87 350.165 43.7 350.505 43.7H351.945C352.145 43.7 352.245 43.6 352.245 43.4V40.7C352.245 40.36 352.425 40.19 352.785 40.19H354.675C355.015 40.19 355.185 40.36 355.185 40.7V43.4C355.185 43.6 355.295 43.7 355.515 43.7H358.305C358.665 43.7 358.845 43.87 358.845 44.21V45.77C358.845 46.09 358.665 46.25 358.305 46.25H355.515C355.295 46.25 355.185 46.35 355.185 46.55V54.26C355.185 55.72 355.935 56.45 357.435 56.45H358.605C358.965 56.45 359.145 56.62 359.145 56.96V58.52C359.145 58.84 358.965 59 358.605 59H356.985C355.505 59 354.345 58.6 353.505 57.8C352.665 57 352.245 55.87 352.245 54.41V46.55C352.245 46.35 352.145 46.25 351.945 46.25ZM367.533 59H366.363C364.883 59 363.733 58.59 362.913 57.77C362.113 56.95 361.713 55.81 361.713 54.35V48.35C361.713 46.87 362.113 45.73 362.913 44.93C363.733 44.11 364.883 43.7 366.363 43.7H373.083C373.443 43.7 373.623 43.87 373.623 44.21V58.49C373.623 58.83 373.443 59 373.083 59H371.193C370.853 59 370.683 58.83 370.683 58.49V57.41H370.563C370.083 58.47 369.073 59 367.533 59ZM370.683 53.9V46.55C370.683 46.35 370.573 46.25 370.353 46.25H366.783C365.343 46.25 364.623 46.99 364.623 48.47V54.23C364.623 55.71 365.343 56.45 366.783 56.45H368.223C369.863 56.45 370.683 55.6 370.683 53.9ZM379.915 59H378.025C377.685 59 377.515 58.83 377.515 58.49V38.42C377.515 38.08 377.685 37.91 378.025 37.91H379.915C380.255 37.91 380.425 38.08 380.425 38.42V58.49C380.425 58.83 380.255 59 379.915 59ZM398.505 59H395.865C394.385 59 393.235 58.59 392.415 57.77C391.615 56.95 391.215 55.81 391.215 54.35V48.35C391.215 46.87 391.615 45.73 392.415 44.93C393.235 44.11 394.385 43.7 395.865 43.7H398.505C399.965 43.7 401.105 44.11 401.925 44.93C402.765 45.73 403.185 46.87 403.185 48.35V54.35C403.185 55.81 402.765 56.95 401.925 57.77C401.105 58.59 399.965 59 398.505 59ZM396.285 56.45H398.115C399.555 56.45 400.275 55.72 400.275 54.26V48.44C400.275 46.98 399.555 46.25 398.115 46.25H396.285C395.525 46.25 394.975 46.43 394.635 46.79C394.295 47.13 394.125 47.68 394.125 48.44V54.26C394.125 55.02 394.295 55.58 394.635 55.94C394.975 56.28 395.525 56.45 396.285 56.45ZM411.252 43.7H413.772C414.132 43.7 414.312 43.86 414.312 44.18V45.74C414.312 46.08 414.132 46.25 413.772 46.25H411.252C411.052 46.25 410.952 46.35 410.952 46.55V58.49C410.952 58.83 410.772 59 410.412 59H408.522C408.182 59 408.012 58.83 408.012 58.49V46.55C408.012 46.35 407.902 46.25 407.682 46.25H406.092C405.752 46.25 405.582 46.08 405.582 45.74V44.18C405.582 44 405.612 43.88 405.672 43.82C405.752 43.74 405.892 43.7 406.092 43.7H407.682C407.902 43.7 408.012 43.6 408.012 43.4V42.53C408.012 41.05 408.392 39.91 409.152 39.11C409.912 38.31 411.022 37.91 412.482 37.91H413.802C414.142 37.91 414.312 38.07 414.312 38.39V39.95C414.312 40.29 414.142 40.46 413.802 40.46H412.902C412.182 40.46 411.672 40.64 411.372 41C411.092 41.34 410.952 41.9 410.952 42.68V43.4C410.952 43.6 411.052 43.7 411.252 43.7ZM426.529 59H424.639C424.299 59 424.129 58.83 424.129 58.49V40.22C424.129 39.88 424.299 39.71 424.639 39.71H434.059C434.399 39.71 434.569 39.88 434.569 40.22V41.75C434.569 42.09 434.399 42.26 434.059 42.26H427.399C427.159 42.26 427.039 42.36 427.039 42.56V48.23C427.039 48.45 427.159 48.56 427.399 48.56H433.189C433.549 48.56 433.729 48.73 433.729 49.07V50.57C433.729 50.93 433.549 51.11 433.189 51.11H427.399C427.159 51.11 427.039 51.21 427.039 51.41V58.49C427.039 58.83 426.869 59 426.529 59ZM439.853 59H437.963C437.623 59 437.453 58.83 437.453 58.49V44.21C437.453 43.87 437.623 43.7 437.963 43.7H439.853C440.193 43.7 440.363 43.87 440.363 44.21V45.35H440.483C440.683 44.85 441.063 44.45 441.623 44.15C442.203 43.85 442.843 43.7 443.543 43.7H444.653C444.993 43.7 445.163 43.87 445.163 44.21V45.77C445.163 46.15 444.993 46.31 444.653 46.25H442.853C441.193 46.25 440.363 47.16 440.363 48.98V58.49C440.363 58.83 440.193 59 439.853 59ZM453.021 59H451.851C450.371 59 449.221 58.59 448.401 57.77C447.601 56.95 447.201 55.81 447.201 54.35V48.35C447.201 46.87 447.601 45.73 448.401 44.93C449.221 44.11 450.371 43.7 451.851 43.7H458.571C458.931 43.7 459.111 43.87 459.111 44.21V58.49C459.111 58.83 458.931 59 458.571 59H456.681C456.341 59 456.171 58.83 456.171 58.49V57.41H456.051C455.571 58.47 454.561 59 453.021 59ZM456.171 53.9V46.55C456.171 46.35 456.061 46.25 455.841 46.25H452.271C450.831 46.25 450.111 46.99 450.111 48.47V54.23C450.111 55.71 450.831 56.45 452.271 56.45H453.711C455.351 56.45 456.171 55.6 456.171 53.9ZM465.253 59H463.363C463.023 59 462.853 58.83 462.853 58.49V44.21C462.853 43.87 463.023 43.7 463.363 43.7H465.253C465.593 43.7 465.763 43.87 465.763 44.21V45.29H465.883C466.363 44.23 467.373 43.7 468.913 43.7H470.233C471.693 43.7 472.813 44.1 473.593 44.9C474.373 45.7 474.763 46.85 474.763 48.35V58.49C474.763 58.83 474.583 59 474.223 59H472.333C471.993 59 471.823 58.83 471.823 58.49V48.47C471.823 46.99 471.093 46.25 469.633 46.25H468.223C466.583 46.25 465.763 47.1 465.763 48.8V58.49C465.763 58.83 465.593 59 465.253 59ZM487.651 56.96V58.52C487.651 58.84 487.471 59 487.111 59H482.701C481.221 59 480.071 58.59 479.251 57.77C478.451 56.95 478.051 55.81 478.051 54.35V48.35C478.051 46.87 478.451 45.73 479.251 44.93C480.071 44.11 481.221 43.7 482.701 43.7H487.111C487.471 43.7 487.651 43.87 487.651 44.21V45.77C487.651 46.09 487.471 46.25 487.111 46.25H483.121C481.681 46.25 480.961 46.99 480.961 48.47V54.23C480.961 55.71 481.681 56.45 483.121 56.45H487.111C487.471 56.45 487.651 56.62 487.651 56.96ZM501.339 59H494.859C493.379 59 492.229 58.59 491.409 57.77C490.609 56.95 490.209 55.81 490.209 54.35V48.35C490.209 46.87 490.609 45.73 491.409 44.93C492.229 44.11 493.379 43.7 494.859 43.7H497.319C498.799 43.7 499.949 44.11 500.769 44.93C501.589 45.73 501.999 46.87 501.999 48.35V52.16C501.999 52.52 501.819 52.7 501.459 52.7H493.419C493.199 52.7 493.089 52.8 493.089 53V54.29C493.089 55.75 493.819 56.48 495.279 56.48H501.339C501.699 56.48 501.879 56.66 501.879 57.02V58.52C501.879 58.84 501.699 59 501.339 59ZM493.419 50.66H498.789C498.989 50.66 499.089 50.56 499.089 50.36V48.44C499.089 47.68 498.919 47.13 498.579 46.79C498.239 46.43 497.689 46.25 496.929 46.25H495.279C494.519 46.25 493.969 46.43 493.629 46.79C493.289 47.13 493.119 47.68 493.119 48.44V50.36C493.119 50.56 493.219 50.66 493.419 50.66ZM511.874 54.83V58.49C511.874 58.83 511.714 59 511.394 59H509.354C509.014 59 508.844 58.82 508.844 58.46V54.83C508.844 54.51 509.014 54.35 509.354 54.35H511.394C511.714 54.35 511.874 54.51 511.874 54.83ZM511.844 50.96V51.86C511.844 52.2 511.664 52.37 511.304 52.37H509.534C509.194 52.37 509.024 52.2 509.024 51.86V50.99C509.024 50.25 509.134 49.67 509.354 49.25C509.574 48.83 509.974 48.38 510.554 47.9L512.024 46.67C512.724 46.11 513.074 45.49 513.074 44.81V44.39C513.074 42.95 512.324 42.23 510.824 42.23H510.014C509.274 42.23 508.734 42.41 508.394 42.77C508.054 43.11 507.884 43.65 507.884 44.39V45.26C507.884 45.62 507.704 45.8 507.344 45.8H505.454C505.114 45.8 504.944 45.62 504.944 45.26V44.33C504.944 42.87 505.354 41.74 506.174 40.94C506.994 40.14 508.134 39.74 509.594 39.74H511.274C512.734 39.74 513.874 40.14 514.694 40.94C515.514 41.74 515.924 42.87 515.924 44.33V44.96C515.924 45.96 515.474 46.86 514.574 47.66L512.774 49.1C512.374 49.44 512.114 49.74 511.994 50C511.894 50.24 511.844 50.56 511.844 50.96Z" fill="white"/>
<path d="M427 282C427 273.163 434.163 266 443 266H511C519.837 266 527 273.163 527 282V318H443C434.163 318 427 310.837 427 302V282Z" fill="#4472C4"/>
<path d="M444.769 301H441.589C441.229 301 441.019 300.83 440.959 300.49L437.389 282.22C437.349 281.88 437.519 281.71 437.899 281.71H440.209C440.589 281.71 440.789 281.88 440.809 282.22L443.239 297.94H443.419L446.959 282.16C446.999 281.86 447.179 281.71 447.499 281.71H450.019C450.339 281.71 450.529 281.86 450.589 282.16L454.159 297.94H454.339L456.769 282.25C456.789 281.89 456.989 281.71 457.369 281.71H459.679C460.079 281.71 460.249 281.89 460.189 282.25L456.619 300.49C456.559 300.83 456.359 301 456.019 301H452.839C452.499 301 452.299 300.83 452.239 300.49L448.849 285.31H448.729L445.339 300.49C445.279 300.83 445.089 301 444.769 301ZM465.102 301H463.212C462.872 301 462.702 300.83 462.702 300.49V280.42C462.702 280.08 462.872 279.91 463.212 279.91H465.102C465.442 279.91 465.612 280.08 465.612 280.42V287.29H465.732C466.212 286.23 467.222 285.7 468.762 285.7H470.082C471.542 285.7 472.662 286.1 473.442 286.9C474.222 287.7 474.612 288.85 474.612 290.35V300.49C474.612 300.83 474.432 301 474.072 301H472.182C471.842 301 471.672 300.83 471.672 300.49V290.47C471.672 288.99 470.942 288.25 469.482 288.25H468.072C466.432 288.25 465.612 289.1 465.612 290.8V300.49C465.612 300.83 465.442 301 465.102 301ZM483.72 301H482.55C481.07 301 479.92 300.59 479.1 299.77C478.3 298.95 477.9 297.81 477.9 296.35V290.35C477.9 288.87 478.3 287.73 479.1 286.93C479.92 286.11 481.07 285.7 482.55 285.7H489.27C489.63 285.7 489.81 285.87 489.81 286.21V300.49C489.81 300.83 489.63 301 489.27 301H487.38C487.04 301 486.87 300.83 486.87 300.49V299.41H486.75C486.27 300.47 485.26 301 483.72 301ZM486.87 295.9V288.55C486.87 288.35 486.76 288.25 486.54 288.25H482.97C481.53 288.25 480.81 288.99 480.81 290.47V296.23C480.81 297.71 481.53 298.45 482.97 298.45H484.41C486.05 298.45 486.87 297.6 486.87 295.9ZM494.001 288.25H492.561C492.361 288.25 492.221 288.22 492.141 288.16C492.081 288.08 492.051 287.95 492.051 287.77V286.21C492.051 285.87 492.221 285.7 492.561 285.7H494.001C494.201 285.7 494.301 285.6 494.301 285.4V282.7C494.301 282.36 494.481 282.19 494.841 282.19H496.731C497.071 282.19 497.241 282.36 497.241 282.7V285.4C497.241 285.6 497.351 285.7 497.571 285.7H500.361C500.721 285.7 500.901 285.87 500.901 286.21V287.77C500.901 288.09 500.721 288.25 500.361 288.25H497.571C497.351 288.25 497.241 288.35 497.241 288.55V296.26C497.241 297.72 497.991 298.45 499.491 298.45H500.661C501.021 298.45 501.201 298.62 501.201 298.96V300.52C501.201 300.84 501.021 301 500.661 301H499.041C497.561 301 496.401 300.6 495.561 299.8C494.721 299 494.301 297.87 494.301 296.41V288.55C494.301 288.35 494.201 288.25 494.001 288.25ZM510.639 296.83V300.49C510.639 300.83 510.479 301 510.159 301H508.119C507.779 301 507.609 300.82 507.609 300.46V296.83C507.609 296.51 507.779 296.35 508.119 296.35H510.159C510.479 296.35 510.639 296.51 510.639 296.83ZM510.609 292.96V293.86C510.609 294.2 510.429 294.37 510.069 294.37H508.299C507.959 294.37 507.789 294.2 507.789 293.86V292.99C507.789 292.25 507.899 291.67 508.119 291.25C508.339 290.83 508.739 290.38 509.319 289.9L510.789 288.67C511.489 288.11 511.839 287.49 511.839 286.81V286.39C511.839 284.95 511.089 284.23 509.589 284.23H508.779C508.039 284.23 507.499 284.41 507.159 284.77C506.819 285.11 506.649 285.65 506.649 286.39V287.26C506.649 287.62 506.469 287.8 506.109 287.8H504.219C503.879 287.8 503.709 287.62 503.709 287.26V286.33C503.709 284.87 504.119 283.74 504.939 282.94C505.759 282.14 506.899 281.74 508.359 281.74H510.039C511.499 281.74 512.639 282.14 513.459 282.94C514.279 283.74 514.689 284.87 514.689 286.33V286.96C514.689 287.96 514.239 288.86 513.339 289.66L511.539 291.1C511.139 291.44 510.879 291.74 510.759 292C510.659 292.24 510.609 292.56 510.609 292.96Z" fill="white"/>
<circle cx="40" cy="171" r="38" fill="#4D4D4D"/>
<path d="M38.3795 144.072C39.0217 142.696 40.9783 142.696 41.6204 144.072L49.3982 160.738C49.5758 161.118 49.8818 161.424 50.2624 161.602L66.9278 169.38C68.3038 170.022 68.3038 171.978 66.9278 172.62L50.2624 180.398C49.8818 180.576 49.5758 180.882 49.3982 181.262L41.6204 197.928C40.9783 199.304 39.0217 199.304 38.3795 197.928L30.6017 181.262C30.4241 180.882 30.1182 180.576 29.7376 180.398L13.0721 172.62C11.6961 171.978 11.6961 170.022 13.0721 169.38L29.7376 161.602C30.1182 161.424 30.4241 161.118 30.6017 160.738L38.3795 144.072Z" fill="white"/>
<path d="M34.7356 176.555H33.4481C33.2812 176.555 33.2216 176.454 33.2693 176.251L36.3808 165.361C36.4404 165.158 36.5835 165.057 36.81 165.057H38.5982C38.8366 165.057 38.9797 165.158 39.0274 165.361L42.1389 176.251C42.1866 176.454 42.121 176.555 41.9422 176.555H40.6726C40.5653 176.555 40.4878 176.537 40.4401 176.502C40.4043 176.454 40.3745 176.371 40.3507 176.251L39.6712 173.927H35.737L35.0575 176.251C35.0098 176.454 34.9025 176.555 34.7356 176.555ZM37.6683 166.774L36.0947 172.496H39.3314L37.7399 166.774H37.6683ZM45.7306 165.361V176.251C45.7306 176.454 45.6293 176.555 45.4266 176.555H44.3C44.0974 176.555 43.996 176.454 43.996 176.251V165.361C43.996 165.158 44.0974 165.057 44.3 165.057H45.4266C45.6293 165.057 45.7306 165.158 45.7306 165.361Z" fill="black"/>
<path d="M95 161C95 152.163 102.163 145 111 145H379C387.837 145 395 152.163 395 161V181C395 189.837 387.837 197 379 197H95V161Z" fill="#4D4D4D"/>
<path d="M117.029 177.51H121.229C122.729 177.51 123.479 176.79 123.479 175.35V173.49C123.479 172.05 122.689 171.33 121.109 171.33H117.029C116.809 171.33 116.699 171.43 116.699 171.63V177.21C116.699 177.41 116.809 177.51 117.029 177.51ZM117.029 168.93H120.929C122.449 168.93 123.209 168.2 123.209 166.74V165.36C123.209 163.92 122.469 163.2 120.989 163.2H117.029C116.809 163.2 116.699 163.3 116.699 163.5V168.63C116.699 168.83 116.809 168.93 117.029 168.93ZM113.789 179.49V161.22C113.789 160.88 113.959 160.71 114.299 160.71H121.409C122.889 160.71 124.039 161.11 124.859 161.91C125.679 162.71 126.089 163.84 126.089 165.3V166.77C126.089 168.51 125.269 169.63 123.629 170.13C124.409 170.23 125.049 170.57 125.549 171.15C126.069 171.73 126.329 172.51 126.329 173.49V175.41C126.329 176.87 125.919 178 125.099 178.8C124.279 179.6 123.139 180 121.679 180H114.299C113.959 180 113.789 179.83 113.789 179.49ZM135.561 180H134.391C132.911 180 131.761 179.59 130.941 178.77C130.141 177.95 129.741 176.81 129.741 175.35V169.35C129.741 167.87 130.141 166.73 130.941 165.93C131.761 165.11 132.911 164.7 134.391 164.7H141.111C141.471 164.7 141.651 164.87 141.651 165.21V179.49C141.651 179.83 141.471 180 141.111 180H139.221C138.881 180 138.711 179.83 138.711 179.49V178.41H138.591C138.111 179.47 137.101 180 135.561 180ZM138.711 174.9V167.55C138.711 167.35 138.601 167.25 138.381 167.25H134.811C133.371 167.25 132.651 167.99 132.651 169.47V175.23C132.651 176.71 133.371 177.45 134.811 177.45H136.251C137.891 177.45 138.711 176.6 138.711 174.9ZM147.793 180H145.903C145.563 180 145.393 179.83 145.393 179.49V165.21C145.393 164.87 145.563 164.7 145.903 164.7H147.793C148.133 164.7 148.303 164.87 148.303 165.21V166.29H148.423C148.903 165.23 149.913 164.7 151.453 164.7H152.773C154.233 164.7 155.353 165.1 156.133 165.9C156.913 166.7 157.303 167.85 157.303 169.35V179.49C157.303 179.83 157.123 180 156.763 180H154.873C154.533 180 154.363 179.83 154.363 179.49V169.47C154.363 167.99 153.633 167.25 152.173 167.25H150.763C149.123 167.25 148.303 168.1 148.303 169.8V179.49C148.303 179.83 148.133 180 147.793 180ZM166.411 180H165.241C163.761 180 162.611 179.59 161.791 178.77C160.991 177.95 160.591 176.81 160.591 175.35V169.35C160.591 167.87 160.991 166.73 161.791 165.93C162.611 165.11 163.761 164.7 165.241 164.7H171.961C172.321 164.7 172.501 164.87 172.501 165.21V179.49C172.501 179.83 172.321 180 171.961 180H170.071C169.731 180 169.561 179.83 169.561 179.49V178.41H169.441C168.961 179.47 167.951 180 166.411 180ZM169.561 174.9V167.55C169.561 167.35 169.451 167.25 169.231 167.25H165.661C164.221 167.25 163.501 167.99 163.501 169.47V175.23C163.501 176.71 164.221 177.45 165.661 177.45H167.101C168.741 177.45 169.561 176.6 169.561 174.9ZM178.643 180H176.753C176.413 180 176.243 179.83 176.243 179.49V165.21C176.243 164.87 176.413 164.7 176.753 164.7H178.643C178.983 164.7 179.153 164.87 179.153 165.21V166.29H179.273C179.753 165.23 180.763 164.7 182.303 164.7H183.623C185.083 164.7 186.203 165.1 186.983 165.9C187.763 166.7 188.153 167.85 188.153 169.35V179.49C188.153 179.83 187.973 180 187.613 180H185.723C185.383 180 185.213 179.83 185.213 179.49V169.47C185.213 167.99 184.483 167.25 183.023 167.25H181.613C179.973 167.25 179.153 168.1 179.153 169.8V179.49C179.153 179.83 178.983 180 178.643 180ZM197.261 180H196.091C194.611 180 193.461 179.59 192.641 178.77C191.841 177.95 191.441 176.81 191.441 175.35V169.35C191.441 167.87 191.841 166.73 192.641 165.93C193.461 165.11 194.611 164.7 196.091 164.7H202.811C203.171 164.7 203.351 164.87 203.351 165.21V179.49C203.351 179.83 203.171 180 202.811 180H200.921C200.581 180 200.411 179.83 200.411 179.49V178.41H200.291C199.811 179.47 198.801 180 197.261 180ZM200.411 174.9V167.55C200.411 167.35 200.301 167.25 200.081 167.25H196.511C195.071 167.25 194.351 167.99 194.351 169.47V175.23C194.351 176.71 195.071 177.45 196.511 177.45H197.951C199.591 177.45 200.411 176.6 200.411 174.9ZM209.702 175.83V179.49C209.702 179.83 209.542 180 209.222 180H207.182C206.842 180 206.672 179.83 206.672 179.49V175.83C206.672 175.51 206.842 175.35 207.182 175.35H209.222C209.542 175.35 209.702 175.51 209.702 175.83ZM222.917 180H221.027C220.687 180 220.517 179.83 220.517 179.49V161.22C220.517 160.88 220.687 160.71 221.027 160.71H230.447C230.787 160.71 230.957 160.88 230.957 161.22V162.75C230.957 163.09 230.787 163.26 230.447 163.26H223.787C223.547 163.26 223.427 163.36 223.427 163.56V169.23C223.427 169.45 223.547 169.56 223.787 169.56H229.577C229.937 169.56 230.117 169.73 230.117 170.07V171.57C230.117 171.93 229.937 172.11 229.577 172.11H223.787C223.547 172.11 223.427 172.21 223.427 172.41V179.49C223.427 179.83 223.257 180 222.917 180ZM233.99 162.15V159.42C233.99 159.1 234.15 158.94 234.47 158.94H236.42C236.74 158.94 236.9 159.1 236.9 159.42V162.15C236.9 162.49 236.74 162.66 236.42 162.66H234.47C234.15 162.66 233.99 162.49 233.99 162.15ZM233.99 179.49V165.21C233.99 164.87 234.15 164.7 234.47 164.7H236.39C236.73 164.7 236.9 164.87 236.9 165.21V179.49C236.9 179.69 236.86 179.83 236.78 179.91C236.72 179.97 236.6 180 236.42 180H234.5C234.16 180 233.99 179.83 233.99 179.49ZM243.242 180H241.352C241.012 180 240.842 179.83 240.842 179.49V165.21C240.842 164.87 241.012 164.7 241.352 164.7H243.242C243.582 164.7 243.752 164.87 243.752 165.21V166.29H243.872C244.352 165.23 245.362 164.7 246.902 164.7H248.222C249.682 164.7 250.802 165.1 251.582 165.9C252.362 166.7 252.752 167.85 252.752 169.35V179.49C252.752 179.83 252.572 180 252.212 180H250.322C249.982 180 249.812 179.83 249.812 179.49V169.47C249.812 167.99 249.082 167.25 247.622 167.25H246.212C244.572 167.25 243.752 168.1 243.752 169.8V179.49C243.752 179.83 243.582 180 243.242 180ZM261.86 180H260.69C259.21 180 258.06 179.59 257.24 178.77C256.44 177.95 256.04 176.81 256.04 175.35V169.35C256.04 167.87 256.44 166.73 257.24 165.93C258.06 165.11 259.21 164.7 260.69 164.7H267.41C267.77 164.7 267.95 164.87 267.95 165.21V179.49C267.95 179.83 267.77 180 267.41 180H265.52C265.18 180 265.01 179.83 265.01 179.49V178.41H264.89C264.41 179.47 263.4 180 261.86 180ZM265.01 174.9V167.55C265.01 167.35 264.9 167.25 264.68 167.25H261.11C259.67 167.25 258.95 167.99 258.95 169.47V175.23C258.95 176.71 259.67 177.45 261.11 177.45H262.55C264.19 177.45 265.01 176.6 265.01 174.9ZM274.242 180H272.352C272.012 180 271.842 179.83 271.842 179.49V159.42C271.842 159.08 272.012 158.91 272.352 158.91H274.242C274.582 158.91 274.752 159.08 274.752 159.42V179.49C274.752 179.83 274.582 180 274.242 180ZM291.362 180H290.192C288.712 180 287.562 179.59 286.742 178.77C285.942 177.95 285.542 176.81 285.542 175.35V169.35C285.542 167.87 285.942 166.73 286.742 165.93C287.562 165.11 288.712 164.7 290.192 164.7H296.912C297.272 164.7 297.452 164.87 297.452 165.21V179.49C297.452 179.83 297.272 180 296.912 180H295.022C294.682 180 294.512 179.83 294.512 179.49V178.41H294.392C293.912 179.47 292.902 180 291.362 180ZM294.512 174.9V167.55C294.512 167.35 294.402 167.25 294.182 167.25H290.612C289.172 167.25 288.452 167.99 288.452 169.47V175.23C288.452 176.71 289.172 177.45 290.612 177.45H292.052C293.692 177.45 294.512 176.6 294.512 174.9ZM303.594 180H301.704C301.364 180 301.194 179.83 301.194 179.49V165.21C301.194 164.87 301.364 164.7 301.704 164.7H303.594C303.934 164.7 304.104 164.87 304.104 165.21V166.29H304.224C304.704 165.23 305.714 164.7 307.254 164.7H308.574C310.034 164.7 311.154 165.1 311.934 165.9C312.714 166.7 313.104 167.85 313.104 169.35V179.49C313.104 179.83 312.924 180 312.564 180H310.674C310.334 180 310.164 179.83 310.164 179.49V169.47C310.164 167.99 309.434 167.25 307.974 167.25H306.564C304.924 167.25 304.104 168.1 304.104 169.8V179.49C304.104 179.83 303.934 180 303.594 180ZM322.152 180H316.632C316.292 180 316.122 179.83 316.122 179.49V178.02C316.122 177.7 316.292 177.54 316.632 177.54H321.672C322.972 177.54 323.622 177.09 323.622 176.19V175.83C323.622 175.03 323.152 174.42 322.212 174L318.942 172.44C317.922 171.96 317.182 171.43 316.722 170.85C316.262 170.27 316.032 169.51 316.032 168.57C316.032 165.99 317.462 164.7 320.322 164.7H325.302C325.622 164.7 325.782 164.87 325.782 165.21V166.68C325.782 167.02 325.622 167.19 325.302 167.19H320.922C320.322 167.19 319.862 167.3 319.542 167.52C319.222 167.72 319.062 167.99 319.062 168.33V168.66C319.062 169.3 319.572 169.86 320.592 170.34L323.892 172.02C324.932 172.48 325.642 173.03 326.022 173.67C326.422 174.29 326.622 175.1 326.622 176.1C326.622 178.7 325.132 180 322.152 180ZM335.099 180H332.519C332.219 180 332.019 179.83 331.919 179.49L328.469 165.21C328.389 164.87 328.509 164.7 328.829 164.7H330.989C331.349 164.7 331.549 164.87 331.589 165.21L333.779 176.55H333.989L336.629 165.21C336.689 164.87 336.879 164.7 337.199 164.7H339.179C339.519 164.7 339.729 164.87 339.809 165.21L342.389 176.55H342.599L344.789 165.21C344.849 164.87 345.049 164.7 345.389 164.7H347.549C347.889 164.7 348.009 164.87 347.909 165.21L344.459 179.49C344.399 179.83 344.199 180 343.859 180H341.279C340.959 180 340.759 179.83 340.679 179.49L338.279 168.36H338.069L335.699 179.49C335.639 179.83 335.439 180 335.099 180ZM361.301 180H354.821C353.341 180 352.191 179.59 351.371 178.77C350.571 177.95 350.171 176.81 350.171 175.35V169.35C350.171 167.87 350.571 166.73 351.371 165.93C352.191 165.11 353.341 164.7 354.821 164.7H357.281C358.761 164.7 359.911 165.11 360.731 165.93C361.551 166.73 361.961 167.87 361.961 169.35V173.16C361.961 173.52 361.781 173.7 361.421 173.7H353.381C353.161 173.7 353.051 173.8 353.051 174V175.29C353.051 176.75 353.781 177.48 355.241 177.48H361.301C361.661 177.48 361.841 177.66 361.841 178.02V179.52C361.841 179.84 361.661 180 361.301 180ZM353.381 171.66H358.751C358.951 171.66 359.051 171.56 359.051 171.36V169.44C359.051 168.68 358.881 168.13 358.541 167.79C358.201 167.43 357.651 167.25 356.891 167.25H355.241C354.481 167.25 353.931 167.43 353.591 167.79C353.251 168.13 353.081 168.68 353.081 169.44V171.36C353.081 171.56 353.181 171.66 353.381 171.66ZM367.666 180H365.776C365.436 180 365.266 179.83 365.266 179.49V165.21C365.266 164.87 365.436 164.7 365.776 164.7H367.666C368.006 164.7 368.176 164.87 368.176 165.21V166.35H368.296C368.496 165.85 368.876 165.45 369.436 165.15C370.016 164.85 370.656 164.7 371.356 164.7H372.466C372.806 164.7 372.976 164.87 372.976 165.21V166.77C372.976 167.15 372.806 167.31 372.466 167.25H370.666C369.006 167.25 368.176 168.16 368.176 169.98V179.49C368.176 179.83 368.006 180 367.666 180ZM377.925 175.83V179.49C377.925 179.83 377.765 180 377.445 180H375.405C375.065 180 374.895 179.83 374.895 179.49V175.83C374.895 175.51 375.065 175.35 375.405 175.35H377.445C377.765 175.35 377.925 175.51 377.925 175.83Z" fill="white"/>
<circle cx="40" cy="413" r="38" fill="#4D4D4D"/>
<path d="M38.3795 386.072C39.0217 384.696 40.9783 384.696 41.6204 386.072L49.3982 402.738C49.5758 403.118 49.8818 403.424 50.2624 403.602L66.9278 411.38C68.3038 412.022 68.3038 413.978 66.9278 414.62L50.2624 422.398C49.8818 422.576 49.5758 422.882 49.3982 423.262L41.6204 439.928C40.9783 441.304 39.0217 441.304 38.3795 439.928L30.6017 423.262C30.4241 422.882 30.1182 422.576 29.7376 422.398L13.0721 414.62C11.6961 413.978 11.6961 412.022 13.0721 411.38L29.7376 403.602C30.1182 403.424 30.4241 403.118 30.6017 402.738L38.3795 386.072Z" fill="white"/>
<path d="M34.7356 418.555H33.4481C33.2812 418.555 33.2216 418.454 33.2693 418.251L36.3808 407.361C36.4404 407.158 36.5835 407.057 36.81 407.057H38.5982C38.8366 407.057 38.9797 407.158 39.0274 407.361L42.1389 418.251C42.1866 418.454 42.121 418.555 41.9422 418.555H40.6726C40.5653 418.555 40.4878 418.537 40.4401 418.502C40.4043 418.454 40.3745 418.371 40.3507 418.251L39.6712 415.927H35.737L35.0575 418.251C35.0098 418.454 34.9025 418.555 34.7356 418.555ZM37.6683 408.774L36.0947 414.496H39.3314L37.7399 408.774H37.6683ZM45.7306 407.361V418.251C45.7306 418.454 45.6293 418.555 45.4266 418.555H44.3C44.0974 418.555 43.996 418.454 43.996 418.251V407.361C43.996 407.158 44.0974 407.057 44.3 407.057H45.4266C45.6293 407.057 45.7306 407.158 45.7306 407.361Z" fill="black"/>
<path d="M95 403C95 394.163 102.163 387 111 387H294C302.837 387 310 394.163 310 403V423C310 431.837 302.837 439 294 439H95V403Z" fill="#4D4D4D"/>
<path d="M111.82 422H109.9C109.56 422 109.39 421.83 109.39 421.49V414.86L103.78 403.25C103.7 403.09 103.7 402.96 103.78 402.86C103.86 402.76 103.97 402.71 104.11 402.71H106.51C106.77 402.71 106.97 402.88 107.11 403.22L110.8 411.47H110.98L114.61 403.22C114.73 402.88 114.93 402.71 115.21 402.71H117.61C117.77 402.71 117.88 402.76 117.94 402.86C118.02 402.96 118.02 403.09 117.94 403.25L112.33 414.86V421.49C112.33 421.83 112.16 422 111.82 422ZM127.355 422H124.715C123.235 422 122.085 421.59 121.265 420.77C120.465 419.95 120.065 418.81 120.065 417.35V411.35C120.065 409.87 120.465 408.73 121.265 407.93C122.085 407.11 123.235 406.7 124.715 406.7H127.355C128.815 406.7 129.955 407.11 130.775 407.93C131.615 408.73 132.035 409.87 132.035 411.35V417.35C132.035 418.81 131.615 419.95 130.775 420.77C129.955 421.59 128.815 422 127.355 422ZM125.135 419.45H126.965C128.405 419.45 129.125 418.72 129.125 417.26V411.44C129.125 409.98 128.405 409.25 126.965 409.25H125.135C124.375 409.25 123.825 409.43 123.485 409.79C123.145 410.13 122.975 410.68 122.975 411.44V417.26C122.975 418.02 123.145 418.58 123.485 418.94C123.825 419.28 124.375 419.45 125.135 419.45ZM141.152 422H139.802C138.362 422 137.252 421.6 136.472 420.8C135.712 419.98 135.332 418.83 135.332 417.35V407.21C135.332 406.87 135.502 406.7 135.842 406.7H137.732C138.072 406.7 138.242 406.87 138.242 407.21V417.23C138.242 418.71 138.962 419.45 140.402 419.45H141.842C143.482 419.45 144.302 418.6 144.302 416.9V407.21C144.302 406.87 144.472 406.7 144.812 406.7H146.702C147.062 406.7 147.242 406.87 147.242 407.21V421.49C147.242 421.83 147.062 422 146.702 422H144.812C144.472 422 144.302 421.83 144.302 421.49V420.41H144.182C143.702 421.47 142.692 422 141.152 422ZM153.17 403.19V404.54C153.17 405.1 152.99 405.81 152.63 406.67L151.34 409.61C151.24 409.79 151.09 409.88 150.89 409.88C150.63 409.88 150.5 409.72 150.5 409.4V403.22C150.5 402.88 150.66 402.71 150.98 402.71H152.69C153.01 402.71 153.17 402.87 153.17 403.19ZM158.858 422H156.968C156.628 422 156.458 421.83 156.458 421.49V407.21C156.458 406.87 156.628 406.7 156.968 406.7H158.858C159.198 406.7 159.368 406.87 159.368 407.21V408.35H159.488C159.688 407.85 160.068 407.45 160.628 407.15C161.208 406.85 161.848 406.7 162.548 406.7H163.658C163.998 406.7 164.168 406.87 164.168 407.21V408.77C164.168 409.15 163.998 409.31 163.658 409.25H161.858C160.198 409.25 159.368 410.16 159.368 411.98V421.49C159.368 421.83 159.198 422 158.858 422ZM177.337 422H170.857C169.377 422 168.227 421.59 167.407 420.77C166.607 419.95 166.207 418.81 166.207 417.35V411.35C166.207 409.87 166.607 408.73 167.407 407.93C168.227 407.11 169.377 406.7 170.857 406.7H173.317C174.797 406.7 175.947 407.11 176.767 407.93C177.587 408.73 177.997 409.87 177.997 411.35V415.16C177.997 415.52 177.817 415.7 177.457 415.7H169.417C169.197 415.7 169.087 415.8 169.087 416V417.29C169.087 418.75 169.817 419.48 171.277 419.48H177.337C177.697 419.48 177.877 419.66 177.877 420.02V421.52C177.877 421.84 177.697 422 177.337 422ZM169.417 413.66H174.787C174.987 413.66 175.087 413.56 175.087 413.36V411.44C175.087 410.68 174.917 410.13 174.577 409.79C174.237 409.43 173.687 409.25 172.927 409.25H171.277C170.517 409.25 169.967 409.43 169.627 409.79C169.287 410.13 169.117 410.68 169.117 411.44V413.36C169.117 413.56 169.217 413.66 169.417 413.66ZM193.821 422H191.241C190.941 422 190.741 421.83 190.641 421.49L187.191 407.21C187.111 406.87 187.231 406.7 187.551 406.7H189.711C190.071 406.7 190.271 406.87 190.311 407.21L192.501 418.55H192.711L195.351 407.21C195.411 406.87 195.601 406.7 195.921 406.7H197.901C198.241 406.7 198.451 406.87 198.531 407.21L201.111 418.55H201.321L203.511 407.21C203.571 406.87 203.771 406.7 204.111 406.7H206.271C206.611 406.7 206.731 406.87 206.631 407.21L203.181 421.49C203.121 421.83 202.921 422 202.581 422H200.001C199.681 422 199.481 421.83 199.401 421.49L197.001 410.36H196.791L194.421 421.49C194.361 421.83 194.161 422 193.821 422ZM220.023 422H213.543C212.063 422 210.913 421.59 210.093 420.77C209.293 419.95 208.893 418.81 208.893 417.35V411.35C208.893 409.87 209.293 408.73 210.093 407.93C210.913 407.11 212.063 406.7 213.543 406.7H216.003C217.483 406.7 218.633 407.11 219.453 407.93C220.273 408.73 220.683 409.87 220.683 411.35V415.16C220.683 415.52 220.503 415.7 220.143 415.7H212.103C211.883 415.7 211.773 415.8 211.773 416V417.29C211.773 418.75 212.503 419.48 213.963 419.48H220.023C220.383 419.48 220.563 419.66 220.563 420.02V421.52C220.563 421.84 220.383 422 220.023 422ZM212.103 413.66H217.473C217.673 413.66 217.773 413.56 217.773 413.36V411.44C217.773 410.68 217.603 410.13 217.263 409.79C216.923 409.43 216.373 409.25 215.613 409.25H213.963C213.203 409.25 212.653 409.43 212.313 409.79C211.973 410.13 211.803 410.68 211.803 411.44V413.36C211.803 413.56 211.903 413.66 212.103 413.66ZM226.538 422H224.648C224.308 422 224.138 421.83 224.138 421.49V401.42C224.138 401.08 224.308 400.91 224.648 400.91H226.538C226.878 400.91 227.048 401.08 227.048 401.42V421.49C227.048 421.83 226.878 422 226.538 422ZM240.29 419.96V421.52C240.29 421.84 240.11 422 239.75 422H235.34C233.86 422 232.71 421.59 231.89 420.77C231.09 419.95 230.69 418.81 230.69 417.35V411.35C230.69 409.87 231.09 408.73 231.89 407.93C232.71 407.11 233.86 406.7 235.34 406.7H239.75C240.11 406.7 240.29 406.87 240.29 407.21V408.77C240.29 409.09 240.11 409.25 239.75 409.25H235.76C234.32 409.25 233.6 409.99 233.6 411.47V417.23C233.6 418.71 234.32 419.45 235.76 419.45H239.75C240.11 419.45 240.29 419.62 240.29 419.96ZM250.138 422H247.498C246.018 422 244.868 421.59 244.048 420.77C243.248 419.95 242.848 418.81 242.848 417.35V411.35C242.848 409.87 243.248 408.73 244.048 407.93C244.868 407.11 246.018 406.7 247.498 406.7H250.138C251.598 406.7 252.738 407.11 253.558 407.93C254.398 408.73 254.818 409.87 254.818 411.35V417.35C254.818 418.81 254.398 419.95 253.558 420.77C252.738 421.59 251.598 422 250.138 422ZM247.918 419.45H249.748C251.188 419.45 251.908 418.72 251.908 417.26V411.44C251.908 409.98 251.188 409.25 249.748 409.25H247.918C247.158 409.25 246.608 409.43 246.268 409.79C245.928 410.13 245.758 410.68 245.758 411.44V417.26C245.758 418.02 245.928 418.58 246.268 418.94C246.608 419.28 247.158 419.45 247.918 419.45ZM260.665 422H258.775C258.435 422 258.265 421.83 258.265 421.49V407.21C258.265 406.87 258.435 406.7 258.775 406.7H260.665C261.005 406.7 261.175 406.87 261.175 407.21V408.29H261.295C261.875 407.23 262.935 406.7 264.475 406.7H265.465C267.205 406.7 268.445 407.36 269.185 408.68C269.505 408.04 269.995 407.55 270.655 407.21C271.315 406.87 272.025 406.7 272.785 406.7H273.745C275.205 406.7 276.315 407.11 277.075 407.93C277.855 408.73 278.245 409.87 278.245 411.35V421.49C278.245 421.83 278.075 422 277.735 422H275.815C275.475 422 275.305 421.83 275.305 421.49V411.47C275.305 409.99 274.585 409.25 273.145 409.25H272.275C270.615 409.25 269.785 410.12 269.785 411.86V421.49C269.785 421.83 269.605 422 269.245 422H267.355C267.015 422 266.845 421.83 266.845 421.49V411.47C266.845 409.99 266.125 409.25 264.685 409.25H263.635C261.995 409.25 261.175 410.1 261.175 411.8V421.49C261.175 421.83 261.005 422 260.665 422ZM292.708 422H286.228C284.748 422 283.598 421.59 282.778 420.77C281.978 419.95 281.578 418.81 281.578 417.35V411.35C281.578 409.87 281.978 408.73 282.778 407.93C283.598 407.11 284.748 406.7 286.228 406.7H288.688C290.168 406.7 291.318 407.11 292.138 407.93C292.958 408.73 293.368 409.87 293.368 411.35V415.16C293.368 415.52 293.188 415.7 292.828 415.7H284.788C284.568 415.7 284.458 415.8 284.458 416V417.29C284.458 418.75 285.188 419.48 286.648 419.48H292.708C293.068 419.48 293.248 419.66 293.248 420.02V421.52C293.248 421.84 293.068 422 292.708 422ZM284.788 413.66H290.158C290.358 413.66 290.458 413.56 290.458 413.36V411.44C290.458 410.68 290.288 410.13 289.948 409.79C289.608 409.43 289.058 409.25 288.298 409.25H286.648C285.888 409.25 285.338 409.43 284.998 409.79C284.658 410.13 284.488 410.68 284.488 411.44V413.36C284.488 413.56 284.588 413.66 284.788 413.66ZM299.283 417.83V421.49C299.283 421.83 299.123 422 298.803 422H296.763C296.423 422 296.253 421.83 296.253 421.49V417.83C296.253 417.51 296.423 417.35 296.763 417.35H298.803C299.123 417.35 299.283 417.51 299.283 417.83Z" fill="white"/>
</svg>
