<svg width="1152" height="1152" viewBox="0 0 1152 1152" fill="none" xmlns="http://www.w3.org/2000/svg">
<path d="M823.969 329.708C825.765 325.861 831.235 325.861 833.031 329.708L860.346 388.237C860.843 389.301 861.699 390.157 862.763 390.654L921.292 417.969C925.139 419.765 925.139 425.235 921.292 427.031L862.763 454.346C861.699 454.843 860.843 455.699 860.346 456.763L833.031 515.292C831.235 519.139 825.765 519.139 823.969 515.292L796.654 456.763C796.157 455.699 795.301 454.843 794.237 454.346L735.708 427.031C731.861 425.235 731.861 419.765 735.708 417.969L794.237 390.654C795.301 390.157 796.157 389.301 796.654 388.237L823.969 329.708Z" fill="white"/>
<path d="M198.917 555L250.117 443H261.797L312.997 555H300.517L253.477 449.88H258.277L211.237 555H198.917ZM219.077 525.08L222.597 515.48H287.717L291.237 525.08H219.077ZM329.125 555V436.28H340.485V555H329.125ZM477.054 470.2C483.88 470.2 489.8 471.533 494.814 474.2C499.934 476.76 503.88 480.707 506.654 486.04C509.534 491.373 510.974 498.093 510.974 506.2V555H499.614V507.32C499.614 498.467 497.48 491.8 493.214 487.32C489.054 482.733 483.134 480.44 475.454 480.44C469.694 480.44 464.68 481.667 460.414 484.12C456.254 486.467 453 489.933 450.654 494.52C448.414 499 447.294 504.44 447.294 510.84V555H435.934V507.32C435.934 498.467 433.8 491.8 429.534 487.32C425.267 482.733 419.294 480.44 411.614 480.44C405.96 480.44 401 481.667 396.734 484.12C392.467 486.467 389.16 489.933 386.814 494.52C384.574 499 383.454 504.44 383.454 510.84V555H372.094V471H382.974V493.72L381.214 489.72C383.774 483.64 387.88 478.893 393.534 475.48C399.294 471.96 406.067 470.2 413.854 470.2C422.067 470.2 429.054 472.28 434.814 476.44C440.574 480.493 444.307 486.627 446.014 494.84L441.534 493.08C443.987 486.253 448.307 480.76 454.494 476.6C460.787 472.333 468.307 470.2 477.054 470.2ZM576.021 555.8C567.914 555.8 560.608 553.987 554.101 550.36C547.701 546.627 542.634 541.56 538.901 535.16C535.168 528.653 533.301 521.24 533.301 512.92C533.301 504.493 535.168 497.08 538.901 490.68C542.634 484.28 547.701 479.267 554.101 475.64C560.501 472.013 567.808 470.2 576.021 470.2C584.341 470.2 591.701 472.013 598.101 475.64C604.608 479.267 609.674 484.28 613.301 490.68C617.034 497.08 618.901 504.493 618.901 512.92C618.901 521.24 617.034 528.653 613.301 535.16C609.674 541.56 604.608 546.627 598.101 550.36C591.594 553.987 584.234 555.8 576.021 555.8ZM576.021 545.72C582.101 545.72 587.488 544.387 592.181 541.72C596.874 538.947 600.554 535.107 603.221 530.2C605.994 525.187 607.381 519.427 607.381 512.92C607.381 506.307 605.994 500.547 603.221 495.64C600.554 490.733 596.874 486.947 592.181 484.28C587.488 481.507 582.154 480.12 576.181 480.12C570.208 480.12 564.874 481.507 560.181 484.28C555.488 486.947 551.754 490.733 548.981 495.64C546.208 500.547 544.821 506.307 544.821 512.92C544.821 519.427 546.208 525.187 548.981 530.2C551.754 535.107 555.488 538.947 560.181 541.72C564.874 544.387 570.154 545.72 576.021 545.72ZM664.654 555.8C657.72 555.8 651.16 554.84 644.974 552.92C638.787 550.893 633.934 548.387 630.414 545.4L635.534 536.44C638.947 539 643.32 541.24 648.654 543.16C653.987 544.973 659.587 545.88 665.454 545.88C673.454 545.88 679.214 544.653 682.734 542.2C686.254 539.64 688.014 536.28 688.014 532.12C688.014 529.027 687 526.627 684.974 524.92C683.054 523.107 680.494 521.773 677.294 520.92C674.094 519.96 670.52 519.16 666.574 518.52C662.627 517.88 658.68 517.133 654.734 516.28C650.894 515.427 647.374 514.2 644.174 512.6C640.974 510.893 638.36 508.6 636.334 505.72C634.414 502.84 633.454 499 633.454 494.2C633.454 489.613 634.734 485.507 637.294 481.88C639.854 478.253 643.587 475.427 648.494 473.4C653.507 471.267 659.587 470.2 666.734 470.2C672.174 470.2 677.614 470.947 683.054 472.44C688.494 473.827 692.974 475.693 696.494 478.04L691.534 487.16C687.8 484.6 683.8 482.787 679.534 481.72C675.267 480.547 671 479.96 666.734 479.96C659.16 479.96 653.56 481.293 649.934 483.96C646.414 486.52 644.654 489.827 644.654 493.88C644.654 497.08 645.614 499.587 647.534 501.4C649.56 503.213 652.174 504.653 655.374 505.72C658.68 506.68 662.254 507.48 666.094 508.12C670.04 508.76 673.934 509.56 677.774 510.52C681.72 511.373 685.294 512.6 688.494 514.2C691.8 515.693 694.414 517.88 696.334 520.76C698.36 523.533 699.374 527.213 699.374 531.8C699.374 536.707 697.987 540.973 695.214 544.6C692.547 548.12 688.6 550.893 683.374 552.92C678.254 554.84 672.014 555.8 664.654 555.8ZM746.779 555.8C738.885 555.8 732.805 553.667 728.539 549.4C724.272 545.133 722.139 539.107 722.139 531.32V452.44H733.499V530.68C733.499 535.587 734.725 539.373 737.179 542.04C739.739 544.707 743.365 546.04 748.059 546.04C753.072 546.04 757.232 544.6 760.539 541.72L764.539 549.88C762.299 551.907 759.579 553.4 756.379 554.36C753.285 555.32 750.085 555.8 746.779 555.8ZM707.099 480.44V471H759.099V480.44H707.099Z" fill="white"/>
<path d="M811.457 441H807.137C806.577 441 806.377 440.66 806.537 439.98L816.977 403.44C817.177 402.76 817.657 402.42 818.417 402.42H824.417C825.217 402.42 825.697 402.76 825.857 403.44L836.297 439.98C836.457 440.66 836.237 441 835.637 441H831.377C831.017 441 830.757 440.94 830.597 440.82C830.477 440.66 830.377 440.38 830.297 439.98L828.017 432.18H814.817L812.537 439.98C812.377 440.66 812.017 441 811.457 441ZM821.297 408.18L816.017 427.38H826.877L821.537 408.18H821.297ZM848.348 403.44V439.98C848.348 440.66 848.008 441 847.328 441H843.548C842.868 441 842.528 440.66 842.528 439.98V403.44C842.528 402.76 842.868 402.42 843.548 402.42H847.328C848.008 402.42 848.348 402.76 848.348 403.44Z" fill="black"/>
<path d="M353.102 682H345.902C345.002 682 344.702 681.475 345.002 680.425L356.852 635.35C357.202 634.3 357.952 633.775 359.102 633.775H369.077C370.327 633.775 371.077 634.3 371.327 635.35L383.177 680.425C383.477 681.475 383.177 682 382.277 682H375.077C374.527 682 374.152 681.9 373.952 681.7C373.752 681.45 373.602 681.025 373.502 680.425L371.402 672.175H356.777L354.677 680.425C354.577 681.025 354.402 681.45 354.152 681.7C353.952 681.9 353.602 682 353.102 682ZM363.977 642.85L358.577 664.525H369.677L364.277 642.85H363.977ZM397.025 682H390.65C389.6 682 389.075 681.475 389.075 680.425V645.325C389.075 644.275 389.6 643.75 390.65 643.75H397.025C398.075 643.75 398.6 644.275 398.6 645.325V647.875H398.9C399.45 646.525 400.425 645.5 401.825 644.8C403.225 644.1 404.7 643.75 406.25 643.75H408.95C409.95 643.75 410.45 644.275 410.45 645.325V650.5C410.45 651.1 410.325 651.525 410.075 651.775C409.875 651.975 409.5 652.05 408.95 652H403.775C400.325 652 398.6 653.95 398.6 657.85V680.425C398.6 681.475 398.075 682 397.025 682ZM416.047 652H413.047C412.447 652 412.022 651.9 411.772 651.7C411.572 651.5 411.472 651.1 411.472 650.5V645.325C411.472 644.275 411.997 643.75 413.047 643.75H416.047C416.597 643.75 416.872 643.475 416.872 642.925V635.8C416.872 634.75 417.422 634.225 418.522 634.225H424.822C425.872 634.225 426.397 634.75 426.397 635.8V642.925C426.397 643.475 426.697 643.75 427.297 643.75H433.147C434.197 643.75 434.722 644.275 434.722 645.325V650.5C434.722 651.05 434.597 651.45 434.347 651.7C434.147 651.9 433.747 652 433.147 652H427.297C426.697 652 426.397 652.275 426.397 652.825V669.4C426.397 670.95 426.747 672.075 427.447 672.775C428.147 673.425 429.297 673.75 430.897 673.75H433.897C434.947 673.75 435.472 674.275 435.472 675.325V680.5C435.472 681.05 435.347 681.45 435.097 681.7C434.897 681.9 434.497 682 433.897 682H429.322C425.372 682 422.297 680.95 420.097 678.85C417.947 676.75 416.872 673.75 416.872 669.85V652.825C416.872 652.275 416.597 652 416.047 652ZM442.038 637.3V630.775C442.038 629.775 442.538 629.275 443.538 629.275H450.063C451.063 629.275 451.563 629.75 451.563 630.7V637.3C451.563 638.3 451.063 638.8 450.063 638.8H443.538C442.538 638.8 442.038 638.3 442.038 637.3ZM442.038 680.425V645.325C442.038 644.275 442.538 643.75 443.538 643.75H449.988C451.038 643.75 451.563 644.275 451.563 645.325V680.425C451.563 681.075 451.438 681.5 451.188 681.7C450.988 681.9 450.613 682 450.063 682H443.613C442.563 682 442.038 681.475 442.038 680.425ZM474.068 643.75H480.068C480.668 643.75 481.068 643.875 481.268 644.125C481.518 644.325 481.643 644.7 481.643 645.25V650.425C481.643 651.475 481.118 652 480.068 652H474.068C473.518 652 473.243 652.275 473.243 652.825V680.425C473.243 681.475 472.693 682 471.593 682H465.293C464.243 682 463.718 681.475 463.718 680.425V652.825C463.718 652.275 463.418 652 462.818 652H459.368C458.318 652 457.793 651.475 457.793 650.425V645.25C457.793 644.65 457.893 644.25 458.093 644.05C458.343 643.85 458.768 643.75 459.368 643.75H462.818C463.418 643.75 463.718 643.475 463.718 642.925V641.5C463.718 637.55 464.743 634.525 466.793 632.425C468.893 630.325 471.918 629.275 475.868 629.275H480.143C480.743 629.275 481.143 629.4 481.343 629.65C481.543 629.85 481.643 630.225 481.643 630.775V635.95C481.643 637 481.143 637.525 480.143 637.525H477.368C475.768 637.525 474.668 637.875 474.068 638.575C473.518 639.225 473.243 640.35 473.243 641.95V642.925C473.243 643.475 473.518 643.75 474.068 643.75ZM487.082 637.3V630.775C487.082 629.775 487.582 629.275 488.582 629.275H495.107C496.107 629.275 496.607 629.75 496.607 630.7V637.3C496.607 638.3 496.107 638.8 495.107 638.8H488.582C487.582 638.8 487.082 638.3 487.082 637.3ZM487.082 680.425V645.325C487.082 644.275 487.582 643.75 488.582 643.75H495.032C496.082 643.75 496.607 644.275 496.607 645.325V680.425C496.607 681.075 496.482 681.5 496.232 681.7C496.032 681.9 495.657 682 495.107 682H488.657C487.607 682 487.082 681.475 487.082 680.425ZM529.612 675.325V680.5C529.612 681.05 529.487 681.45 529.237 681.7C529.037 681.9 528.637 682 528.037 682H516.862C512.912 682 509.862 680.95 507.712 678.85C505.562 676.75 504.487 673.725 504.487 669.775V655.975C504.487 652.025 505.562 649 507.712 646.9C509.862 644.8 512.912 643.75 516.862 643.75H528.037C529.087 643.75 529.612 644.275 529.612 645.325V650.5C529.612 651.05 529.487 651.45 529.237 651.7C529.037 651.9 528.637 652 528.037 652H518.362C516.812 652 515.687 652.35 514.987 653.05C514.337 653.7 514.012 654.825 514.012 656.425V669.325C514.012 670.925 514.337 672.075 514.987 672.775C515.687 673.425 516.812 673.75 518.362 673.75H528.037C529.087 673.75 529.612 674.275 529.612 675.325ZM536.447 637.3V630.775C536.447 629.775 536.947 629.275 537.947 629.275H544.472C545.472 629.275 545.972 629.75 545.972 630.7V637.3C545.972 638.3 545.472 638.8 544.472 638.8H537.947C536.947 638.8 536.447 638.3 536.447 637.3ZM536.447 680.425V645.325C536.447 644.275 536.947 643.75 537.947 643.75H544.397C545.447 643.75 545.972 644.275 545.972 645.325V680.425C545.972 681.075 545.847 681.5 545.597 681.7C545.397 681.9 545.022 682 544.472 682H538.022C536.972 682 536.447 681.475 536.447 680.425ZM568.027 682H566.227C562.277 682 559.227 680.95 557.077 678.85C554.927 676.75 553.852 673.725 553.852 669.775V655.975C553.852 652.025 554.927 649 557.077 646.9C559.227 644.8 562.277 643.75 566.227 643.75H583.552C584.652 643.75 585.202 644.275 585.202 645.325V680.425C585.202 681.475 584.652 682 583.552 682H577.252C576.202 682 575.677 681.475 575.677 680.425V677.95H575.377C574.827 679.3 573.852 680.325 572.452 681.025C571.052 681.675 569.577 682 568.027 682ZM575.677 668.05V652.825C575.677 652.275 575.377 652 574.777 652H567.727C566.127 652 565.002 652.35 564.352 653.05C563.702 653.7 563.377 654.825 563.377 656.425V669.325C563.377 670.925 563.702 672.075 564.352 672.775C565.002 673.425 566.127 673.75 567.727 673.75H570.502C573.952 673.75 575.677 671.85 575.677 668.05ZM601.745 682H595.37C594.32 682 593.795 681.475 593.795 680.425V630.85C593.795 629.8 594.32 629.275 595.37 629.275H601.745C602.795 629.275 603.32 629.8 603.32 630.85V680.425C603.32 681.475 602.795 682 601.745 682ZM629.501 671.2V680.425C629.501 681.475 629.026 682 628.076 682H621.401C620.401 682 619.901 681.45 619.901 680.35V671.275C619.901 670.275 620.401 669.775 621.401 669.775H628.076C629.026 669.775 629.501 670.25 629.501 671.2ZM629.426 661.375V663.325C629.426 664.375 628.901 664.9 627.851 664.9H621.926C620.876 664.9 620.351 664.375 620.351 663.325V661.3C620.351 659.65 620.626 658.325 621.176 657.325C621.726 656.275 622.651 655.225 623.951 654.175L628.151 650.725C629.751 649.475 630.551 648.1 630.551 646.6V646.15C630.551 644.6 630.176 643.5 629.426 642.85C628.726 642.15 627.551 641.8 625.901 641.8H624.551C623.001 641.8 621.876 642.125 621.176 642.775C620.526 643.425 620.201 644.55 620.201 646.15V647.725C620.201 648.825 619.676 649.375 618.626 649.375H612.251C611.201 649.375 610.676 648.825 610.676 647.725V646C610.676 642.1 611.751 639.1 613.901 637C616.051 634.9 619.101 633.85 623.051 633.85H627.476C631.426 633.85 634.476 634.9 636.626 637C638.776 639.1 639.851 642.1 639.851 646V647.05C639.851 649.5 638.726 651.7 636.476 653.65L631.376 657.775C630.076 658.975 629.426 660.175 629.426 661.375ZM678.817 682H676.642C676.092 682 675.817 681.7 675.817 681.1V663.775L661.267 634.675C660.967 634.075 661.142 633.775 661.792 633.775H664.492C664.942 633.775 665.292 634.075 665.542 634.675L677.542 659.2H677.917L689.842 634.675C690.092 634.075 690.442 633.775 690.892 633.775H693.667C694.217 633.775 694.392 634.075 694.192 634.675L679.567 663.775V681.1C679.567 681.7 679.317 682 678.817 682ZM727.279 682H711.604C708.354 682 705.779 681.05 703.879 679.15C702.029 677.25 701.104 674.65 701.104 671.35V654.4C701.104 651.1 702.029 648.5 703.879 646.6C705.779 644.7 708.354 643.75 711.604 643.75H718.054C721.304 643.75 723.879 644.7 725.779 646.6C727.679 648.5 728.629 651.1 728.629 654.4V663.925C728.629 664.525 728.329 664.825 727.729 664.825H705.529C705.079 664.825 704.854 665.05 704.854 665.5V671.275C704.854 673.625 705.454 675.45 706.654 676.75C707.854 678 709.604 678.625 711.904 678.625H727.279C727.829 678.625 728.104 678.9 728.104 679.45V681.175C728.104 681.725 727.829 682 727.279 682ZM705.529 661.825H724.204C724.654 661.825 724.879 661.6 724.879 661.15V654.475C724.879 652.125 724.279 650.325 723.079 649.075C721.879 647.775 720.129 647.125 717.829 647.125H711.904C709.604 647.125 707.854 647.775 706.654 649.075C705.454 650.325 704.854 652.125 704.854 654.475V661.15C704.854 661.6 705.079 661.825 705.529 661.825ZM751.143 682H738.093C737.543 682 737.268 681.725 737.268 681.175V679.45C737.268 678.95 737.543 678.7 738.093 678.7H750.768C755.268 678.7 757.518 676.95 757.518 673.45V671.65C757.518 668.4 756.118 666.275 753.318 665.275L743.943 661.675C741.393 660.675 739.568 659.5 738.468 658.15C737.418 656.8 736.893 654.925 736.893 652.525C736.893 646.675 740.118 643.75 746.568 643.75H758.718C759.268 643.75 759.543 644.025 759.543 644.575V646.3C759.543 646.8 759.268 647.05 758.718 647.05H746.943C744.893 647.05 743.343 647.5 742.293 648.4C741.293 649.3 740.793 650.35 740.793 651.55V653.275C740.793 654.675 741.168 655.775 741.918 656.575C742.718 657.375 743.918 658.05 745.518 658.6L754.893 662.35C757.493 663.2 759.218 664.475 760.068 666.175C760.968 667.825 761.418 670.15 761.418 673.15C761.418 676.15 760.568 678.375 758.868 679.825C757.218 681.275 754.643 682 751.143 682ZM774.668 672.175V681.1C774.668 681.7 774.418 682 773.918 682H771.293C770.743 682 770.468 681.7 770.468 681.1V672.175C770.468 671.625 770.743 671.35 771.293 671.35H773.918C774.418 671.35 774.668 671.625 774.668 672.175Z" fill="white"/>
<path d="M274.158 745.35V790.425C274.158 791.475 273.633 792 272.583 792H266.208C265.158 792 264.633 791.475 264.633 790.425V745.35C264.633 744.3 265.158 743.775 266.208 743.775H272.583C273.633 743.775 274.158 744.3 274.158 745.35ZM291.453 792H285.078C284.028 792 283.503 791.475 283.503 790.425V755.325C283.503 754.275 284.028 753.75 285.078 753.75H291.453C292.503 753.75 293.028 754.275 293.028 755.325V757.8H293.328C294.428 755.1 296.878 753.75 300.678 753.75H303.078C310.928 753.75 314.853 757.825 314.853 765.975V790.425C314.853 791.475 314.303 792 313.203 792H306.903C305.853 792 305.328 791.475 305.328 790.425V766.425C305.328 764.825 304.978 763.7 304.278 763.05C303.628 762.35 302.503 762 300.903 762H298.203C294.753 762 293.028 763.9 293.028 767.7V790.425C293.028 791.475 292.503 792 291.453 792ZM323.586 762H320.586C319.986 762 319.561 761.9 319.311 761.7C319.111 761.5 319.011 761.1 319.011 760.5V755.325C319.011 754.275 319.536 753.75 320.586 753.75H323.586C324.136 753.75 324.411 753.475 324.411 752.925V745.8C324.411 744.75 324.961 744.225 326.061 744.225H332.361C333.411 744.225 333.936 744.75 333.936 745.8V752.925C333.936 753.475 334.236 753.75 334.836 753.75H340.686C341.736 753.75 342.261 754.275 342.261 755.325V760.5C342.261 761.05 342.136 761.45 341.886 761.7C341.686 761.9 341.286 762 340.686 762H334.836C334.236 762 333.936 762.275 333.936 762.825V779.4C333.936 780.95 334.286 782.075 334.986 782.775C335.686 783.425 336.836 783.75 338.436 783.75H341.436C342.486 783.75 343.011 784.275 343.011 785.325V790.5C343.011 791.05 342.886 791.45 342.636 791.7C342.436 791.9 342.036 792 341.436 792H336.861C332.911 792 329.836 790.95 327.636 788.85C325.486 786.75 324.411 783.75 324.411 779.85V762.825C324.411 762.275 324.136 762 323.586 762ZM377.402 792H360.827C356.877 792 353.827 790.95 351.677 788.85C349.527 786.75 348.452 783.725 348.452 779.775V765.975C348.452 762.025 349.527 759 351.677 756.9C353.827 754.8 356.877 753.75 360.827 753.75H366.752C370.702 753.75 373.752 754.8 375.902 756.9C378.052 759 379.127 762.025 379.127 765.975V775.5C379.127 776.55 378.602 777.075 377.552 777.075H358.727C358.127 777.075 357.827 777.35 357.827 777.9V779.55C357.827 781.1 358.152 782.225 358.802 782.925C359.502 783.575 360.652 783.9 362.252 783.9H377.402C378.452 783.9 378.977 784.45 378.977 785.55V790.5C378.977 791.05 378.852 791.45 378.602 791.7C378.402 791.9 378.002 792 377.402 792ZM358.727 770.7H368.927C369.477 770.7 369.752 770.425 369.752 769.875V766.275C369.752 764.675 369.427 763.55 368.777 762.9C368.127 762.25 367.002 761.925 365.402 761.925H362.252C360.652 761.925 359.527 762.25 358.877 762.9C358.227 763.55 357.902 764.675 357.902 766.275V769.875C357.902 770.425 358.177 770.7 358.727 770.7ZM394.587 792H388.212C387.162 792 386.637 791.475 386.637 790.425V740.85C386.637 739.8 387.162 739.275 388.212 739.275H394.587C395.637 739.275 396.162 739.8 396.162 740.85V790.425C396.162 791.475 395.637 792 394.587 792ZM413.117 792H406.742C405.692 792 405.167 791.475 405.167 790.425V740.85C405.167 739.8 405.692 739.275 406.742 739.275H413.117C414.167 739.275 414.692 739.8 414.692 740.85V790.425C414.692 791.475 414.167 792 413.117 792ZM423.698 747.3V740.775C423.698 739.775 424.198 739.275 425.198 739.275H431.723C432.723 739.275 433.223 739.75 433.223 740.7V747.3C433.223 748.3 432.723 748.8 431.723 748.8H425.198C424.198 748.8 423.698 748.3 423.698 747.3ZM423.698 790.425V755.325C423.698 754.275 424.198 753.75 425.198 753.75H431.648C432.698 753.75 433.223 754.275 433.223 755.325V790.425C433.223 791.075 433.098 791.5 432.848 791.7C432.648 791.9 432.273 792 431.723 792H425.273C424.223 792 423.698 791.475 423.698 790.425ZM455.353 790.275H452.878C449.028 790.275 446.103 789.225 444.103 787.125C442.153 785.025 441.178 782 441.178 778.05V765.975C441.178 762.025 442.253 759 444.403 756.9C446.553 754.8 449.603 753.75 453.553 753.75H470.878C471.978 753.75 472.528 754.275 472.528 755.325V792.3C472.528 796.2 471.428 799.2 469.228 801.3C467.078 803.4 464.053 804.45 460.153 804.45H445.753C445.153 804.45 444.728 804.325 444.478 804.075C444.278 803.875 444.178 803.5 444.178 802.95V797.775C444.178 796.725 444.703 796.2 445.753 796.2H458.578C460.178 796.2 461.303 795.85 461.953 795.15C462.653 794.5 463.003 793.4 463.003 791.85V786.15H462.703C462.153 787.5 461.178 788.525 459.778 789.225C458.378 789.925 456.903 790.275 455.353 790.275ZM463.003 776.325V762.825C463.003 762.275 462.703 762 462.103 762H455.053C453.453 762 452.328 762.35 451.678 763.05C451.028 763.7 450.703 764.825 450.703 766.425V777.6C450.703 779.2 451.028 780.325 451.678 780.975C452.328 781.625 453.453 781.95 455.053 781.95H457.828C461.278 781.95 463.003 780.075 463.003 776.325ZM508.945 792H492.37C488.42 792 485.37 790.95 483.22 788.85C481.07 786.75 479.995 783.725 479.995 779.775V765.975C479.995 762.025 481.07 759 483.22 756.9C485.37 754.8 488.42 753.75 492.37 753.75H498.295C502.245 753.75 505.295 754.8 507.445 756.9C509.595 759 510.67 762.025 510.67 765.975V775.5C510.67 776.55 510.145 777.075 509.095 777.075H490.27C489.67 777.075 489.37 777.35 489.37 777.9V779.55C489.37 781.1 489.695 782.225 490.345 782.925C491.045 783.575 492.195 783.9 493.795 783.9H508.945C509.995 783.9 510.52 784.45 510.52 785.55V790.5C510.52 791.05 510.395 791.45 510.145 791.7C509.945 791.9 509.545 792 508.945 792ZM490.27 770.7H500.47C501.02 770.7 501.295 770.425 501.295 769.875V766.275C501.295 764.675 500.97 763.55 500.32 762.9C499.67 762.25 498.545 761.925 496.945 761.925H493.795C492.195 761.925 491.07 762.25 490.42 762.9C489.77 763.55 489.445 764.675 489.445 766.275V769.875C489.445 770.425 489.72 770.7 490.27 770.7ZM525.755 792H519.38C518.33 792 517.805 791.475 517.805 790.425V755.325C517.805 754.275 518.33 753.75 519.38 753.75H525.755C526.805 753.75 527.33 754.275 527.33 755.325V757.8H527.63C528.73 755.1 531.18 753.75 534.98 753.75H537.38C545.23 753.75 549.155 757.825 549.155 765.975V790.425C549.155 791.475 548.605 792 547.505 792H541.205C540.155 792 539.63 791.475 539.63 790.425V766.425C539.63 764.825 539.28 763.7 538.58 763.05C537.93 762.35 536.805 762 535.205 762H532.505C529.055 762 527.33 763.9 527.33 767.7V790.425C527.33 791.475 526.805 792 525.755 792ZM557.888 762H554.888C554.288 762 553.863 761.9 553.613 761.7C553.413 761.5 553.313 761.1 553.313 760.5V755.325C553.313 754.275 553.838 753.75 554.888 753.75H557.888C558.438 753.75 558.713 753.475 558.713 752.925V745.8C558.713 744.75 559.263 744.225 560.363 744.225H566.663C567.713 744.225 568.238 744.75 568.238 745.8V752.925C568.238 753.475 568.538 753.75 569.138 753.75H574.988C576.038 753.75 576.563 754.275 576.563 755.325V760.5C576.563 761.05 576.438 761.45 576.188 761.7C575.988 761.9 575.588 762 574.988 762H569.138C568.538 762 568.238 762.275 568.238 762.825V779.4C568.238 780.95 568.588 782.075 569.288 782.775C569.988 783.425 571.138 783.75 572.738 783.75H575.738C576.788 783.75 577.313 784.275 577.313 785.325V790.5C577.313 791.05 577.188 791.45 576.938 791.7C576.738 791.9 576.338 792 575.738 792H571.163C567.213 792 564.138 790.95 561.938 788.85C559.788 786.75 558.713 783.75 558.713 779.85V762.825C558.713 762.275 558.438 762 557.888 762ZM601.053 781.2V790.425C601.053 791.475 600.578 792 599.628 792H592.953C591.953 792 591.453 791.45 591.453 790.35V781.275C591.453 780.275 591.953 779.775 592.953 779.775H599.628C600.578 779.775 601.053 780.25 601.053 781.2ZM600.978 771.375V773.325C600.978 774.375 600.453 774.9 599.403 774.9H593.478C592.428 774.9 591.903 774.375 591.903 773.325V771.3C591.903 769.65 592.178 768.325 592.728 767.325C593.278 766.275 594.203 765.225 595.503 764.175L599.703 760.725C601.303 759.475 602.103 758.1 602.103 756.6V756.15C602.103 754.6 601.728 753.5 600.978 752.85C600.278 752.15 599.103 751.8 597.453 751.8H596.103C594.553 751.8 593.428 752.125 592.728 752.775C592.078 753.425 591.753 754.55 591.753 756.15V757.725C591.753 758.825 591.228 759.375 590.178 759.375H583.803C582.753 759.375 582.228 758.825 582.228 757.725V756C582.228 752.1 583.303 749.1 585.453 747C587.603 744.9 590.653 743.85 594.603 743.85H599.028C602.978 743.85 606.028 744.9 608.178 747C610.328 749.1 611.403 752.1 611.403 756V757.05C611.403 759.5 610.278 761.7 608.028 763.65L602.928 767.775C601.628 768.975 600.978 770.175 600.978 771.375ZM634.717 792H631.927C631.267 792 631.057 791.64 631.297 790.92L649.207 735.21C649.387 734.49 649.807 734.13 650.467 734.13H654.697C655.297 734.13 655.717 734.49 655.957 735.21L673.867 790.92C674.047 791.64 673.837 792 673.237 792H670.357C669.757 792 669.367 791.64 669.187 790.92L664.327 776.52H640.747L635.887 790.92C635.647 791.64 635.257 792 634.717 792ZM652.357 739.08L642.007 772.47H663.157L652.717 739.08H652.357ZM687.295 792H684.685C684.085 792 683.785 791.64 683.785 790.92V729.81C683.785 729.09 684.085 728.73 684.685 728.73H687.295C687.955 728.73 688.285 729.09 688.285 729.81V790.92C688.285 791.64 687.955 792 687.295 792ZM705.742 792H703.132C702.532 792 702.232 791.64 702.232 790.92V747.18C702.232 746.46 702.532 746.1 703.132 746.1H705.742C706.402 746.1 706.732 746.46 706.732 747.18V750.78H707.092C708.832 747.66 712.012 746.1 716.632 746.1H720.322C725.602 746.1 729.262 748.2 731.302 752.4C732.202 750.3 733.732 748.74 735.892 747.72C738.052 746.64 740.272 746.1 742.552 746.1H745.882C749.782 746.1 752.842 747.24 755.062 749.52C757.282 751.8 758.392 754.92 758.392 758.88V790.92C758.392 791.64 758.062 792 757.402 792H754.792C754.132 792 753.802 791.64 753.802 790.92V759.06C753.802 756.18 753.082 753.99 751.642 752.49C750.202 750.93 748.102 750.15 745.342 750.15H742.012C739.132 750.15 736.852 750.99 735.172 752.67C733.492 754.29 732.652 756.51 732.652 759.33V790.92C732.652 791.64 732.322 792 731.662 792H729.052C728.392 792 728.062 791.64 728.062 790.92V759.06C728.062 756.18 727.342 753.99 725.902 752.49C724.462 750.93 722.362 750.15 719.602 750.15H716.002C713.122 750.15 710.842 750.93 709.162 752.49C707.542 753.99 706.732 756.15 706.732 758.97V790.92C706.732 791.64 706.402 792 705.742 792ZM790.842 792H783.102C779.202 792 776.112 790.86 773.832 788.58C771.612 786.3 770.502 783.18 770.502 779.22V758.88C770.502 754.92 771.612 751.8 773.832 749.52C776.112 747.24 779.202 746.1 783.102 746.1H790.842C794.742 746.1 797.832 747.24 800.112 749.52C802.392 751.8 803.532 754.92 803.532 758.88V779.22C803.532 783.18 802.392 786.3 800.112 788.58C797.832 790.86 794.742 792 790.842 792ZM783.462 787.95H790.482C793.242 787.95 795.342 787.2 796.782 785.7C798.282 784.14 799.032 781.95 799.032 779.13V758.97C799.032 756.15 798.282 753.99 796.782 752.49C795.342 750.93 793.242 750.15 790.482 750.15H783.462C780.702 750.15 778.602 750.93 777.162 752.49C775.722 753.99 775.002 756.15 775.002 758.97V779.13C775.002 781.95 775.722 784.14 777.162 785.7C778.602 787.2 780.702 787.95 783.462 787.95ZM830.9 792H815.24C814.58 792 814.25 791.67 814.25 791.01V788.94C814.25 788.34 814.58 788.04 815.24 788.04H830.45C835.85 788.04 838.55 785.94 838.55 781.74V779.58C838.55 775.68 836.87 773.13 833.51 771.93L822.26 767.61C819.2 766.41 817.01 765 815.69 763.38C814.43 761.76 813.8 759.51 813.8 756.63C813.8 749.61 817.67 746.1 825.41 746.1H839.99C840.65 746.1 840.98 746.43 840.98 747.09V749.16C840.98 749.76 840.65 750.06 839.99 750.06H825.86C823.4 750.06 821.54 750.6 820.28 751.68C819.08 752.76 818.48 754.02 818.48 755.46V757.53C818.48 759.21 818.93 760.53 819.83 761.49C820.79 762.45 822.23 763.26 824.15 763.92L835.4 768.42C838.52 769.44 840.59 770.97 841.61 773.01C842.69 774.99 843.23 777.78 843.23 781.38C843.23 784.98 842.21 787.65 840.17 789.39C838.19 791.13 835.1 792 830.9 792ZM856.79 750.15H851.3C850.64 750.15 850.31 749.85 850.31 749.25V747.09C850.31 746.43 850.64 746.1 851.3 746.1H856.79C857.33 746.1 857.6 745.83 857.6 745.29V738C857.6 737.28 857.93 736.92 858.59 736.92H861.2C861.86 736.92 862.19 737.28 862.19 738V745.29C862.19 745.83 862.46 746.1 863 746.1H873.71C874.37 746.1 874.7 746.43 874.7 747.09V749.25C874.7 749.85 874.37 750.15 873.71 750.15H863C862.46 750.15 862.19 750.42 862.19 750.96V779.31C862.19 782.07 862.97 784.2 864.53 785.7C866.09 787.2 868.28 787.95 871.1 787.95H874.61C875.27 787.95 875.6 788.28 875.6 788.94V791.01C875.6 791.67 875.27 792 874.61 792H870.74C866.78 792 863.6 790.89 861.2 788.67C858.8 786.45 857.6 783.39 857.6 779.49V750.96C857.6 750.42 857.33 750.15 856.79 750.15ZM888.486 782.175V791.1C888.486 791.7 888.236 792 887.736 792H885.111C884.561 792 884.286 791.7 884.286 791.1V782.175C884.286 781.625 884.561 781.35 885.111 781.35H887.736C888.236 781.35 888.486 781.625 888.486 782.175Z" fill="white"/>
</svg>
