<svg width="400" height="400" viewBox="0 0 400 400" fill="none" xmlns="http://www.w3.org/2000/svg">
<g clip-path="url(#clip0_2_16)">
<path d="M344.969 99.7082C346.765 95.861 352.235 95.861 354.031 99.7083L367.028 127.556C367.524 128.62 368.38 129.476 369.444 129.972L397.292 142.969C401.139 144.765 401.139 150.235 397.292 152.031L369.444 165.028C368.38 165.524 367.524 166.38 367.028 167.444L354.031 195.292C352.235 199.139 346.765 199.139 344.969 195.292L331.972 167.444C331.476 166.38 330.62 165.524 329.556 165.028L301.708 152.031C297.861 150.235 297.861 144.765 301.708 142.969L329.556 129.972C330.62 129.476 331.476 128.62 331.972 127.556L344.969 99.7082Z" fill="white"/>
<path d="M4.64777 232L33.4478 169H40.0178L68.8178 232H61.7978L35.3378 172.87H38.0378L11.5778 232H4.64777ZM15.9878 215.17L17.9678 209.77H54.5978L56.5778 215.17H15.9878ZM77.8895 232V165.22H84.2795V232H77.8895ZM161.099 184.3C164.939 184.3 168.269 185.05 171.089 186.55C173.969 187.99 176.189 190.21 177.749 193.21C179.369 196.21 180.179 199.99 180.179 204.55V232H173.789V205.18C173.789 200.2 172.589 196.45 170.189 193.93C167.849 191.35 164.519 190.06 160.199 190.06C156.959 190.06 154.139 190.75 151.739 192.13C149.399 193.45 147.569 195.4 146.249 197.98C144.989 200.5 144.359 203.56 144.359 207.16V232H137.969V205.18C137.969 200.2 136.769 196.45 134.369 193.93C131.969 191.35 128.609 190.06 124.289 190.06C121.109 190.06 118.319 190.75 115.919 192.13C113.519 193.45 111.659 195.4 110.339 197.98C109.079 200.5 108.449 203.56 108.449 207.16V232H102.059V184.75H108.179V197.53L107.189 195.28C108.629 191.86 110.939 189.19 114.119 187.27C117.359 185.29 121.169 184.3 125.549 184.3C130.169 184.3 134.099 185.47 137.339 187.81C140.579 190.09 142.679 193.54 143.639 198.16L141.119 197.17C142.499 193.33 144.929 190.24 148.409 187.9C151.949 185.5 156.179 184.3 161.099 184.3ZM216.769 232.45C212.209 232.45 208.099 231.43 204.439 229.39C200.839 227.29 197.989 224.44 195.889 220.84C193.789 217.18 192.739 213.01 192.739 208.33C192.739 203.59 193.789 199.42 195.889 195.82C197.989 192.22 200.839 189.4 204.439 187.36C208.039 185.32 212.149 184.3 216.769 184.3C221.449 184.3 225.589 185.32 229.189 187.36C232.849 189.4 235.699 192.22 237.739 195.82C239.839 199.42 240.889 203.59 240.889 208.33C240.889 213.01 239.839 217.18 237.739 220.84C235.699 224.44 232.849 227.29 229.189 229.39C225.529 231.43 221.389 232.45 216.769 232.45ZM216.769 226.78C220.189 226.78 223.219 226.03 225.859 224.53C228.499 222.97 230.569 220.81 232.069 218.05C233.629 215.23 234.409 211.99 234.409 208.33C234.409 204.61 233.629 201.37 232.069 198.61C230.569 195.85 228.499 193.72 225.859 192.22C223.219 190.66 220.219 189.88 216.859 189.88C213.499 189.88 210.499 190.66 207.859 192.22C205.219 193.72 203.119 195.85 201.559 198.61C199.999 201.37 199.219 204.61 199.219 208.33C199.219 211.99 199.999 215.23 201.559 218.05C203.119 220.81 205.219 222.97 207.859 224.53C210.499 226.03 213.469 226.78 216.769 226.78ZM266.624 232.45C262.724 232.45 259.034 231.91 255.554 230.83C252.074 229.69 249.344 228.28 247.364 226.6L250.244 221.56C252.164 223 254.624 224.26 257.624 225.34C260.624 226.36 263.774 226.87 267.074 226.87C271.574 226.87 274.814 226.18 276.794 224.8C278.774 223.36 279.764 221.47 279.764 219.13C279.764 217.39 279.194 216.04 278.054 215.08C276.974 214.06 275.534 213.31 273.734 212.83C271.934 212.29 269.924 211.84 267.704 211.48C265.484 211.12 263.264 210.7 261.044 210.22C258.884 209.74 256.904 209.05 255.104 208.15C253.304 207.19 251.834 205.9 250.694 204.28C249.614 202.66 249.074 200.5 249.074 197.8C249.074 195.22 249.794 192.91 251.234 190.87C252.674 188.83 254.774 187.24 257.534 186.1C260.354 184.9 263.774 184.3 267.794 184.3C270.854 184.3 273.914 184.72 276.974 185.56C280.034 186.34 282.554 187.39 284.534 188.71L281.744 193.84C279.644 192.4 277.394 191.38 274.994 190.78C272.594 190.12 270.194 189.79 267.794 189.79C263.534 189.79 260.384 190.54 258.344 192.04C256.364 193.48 255.374 195.34 255.374 197.62C255.374 199.42 255.914 200.83 256.994 201.85C258.134 202.87 259.604 203.68 261.404 204.28C263.264 204.82 265.274 205.27 267.434 205.63C269.654 205.99 271.844 206.44 274.004 206.98C276.224 207.46 278.234 208.15 280.034 209.05C281.894 209.89 283.364 211.12 284.444 212.74C285.584 214.3 286.154 216.37 286.154 218.95C286.154 221.71 285.374 224.11 283.814 226.15C282.314 228.13 280.094 229.69 277.154 230.83C274.274 231.91 270.764 232.45 266.624 232.45ZM312.82 232.45C308.38 232.45 304.96 231.25 302.56 228.85C300.16 226.45 298.96 223.06 298.96 218.68V174.31H305.35V218.32C305.35 221.08 306.04 223.21 307.42 224.71C308.86 226.21 310.9 226.96 313.54 226.96C316.36 226.96 318.7 226.15 320.56 224.53L322.81 229.12C321.55 230.26 320.02 231.1 318.22 231.64C316.48 232.18 314.68 232.45 312.82 232.45ZM290.5 190.06V184.75H319.75V190.06H290.5Z" fill="white"/>
<path d="M339.559 157H337.111C336.793 157 336.68 156.807 336.771 156.422L342.687 135.716C342.8 135.331 343.072 135.138 343.503 135.138H346.903C347.356 135.138 347.628 135.331 347.719 135.716L353.635 156.422C353.725 156.807 353.601 157 353.261 157H350.847C350.643 157 350.495 156.966 350.405 156.898C350.337 156.807 350.28 156.649 350.235 156.422L348.943 152.002H341.463L340.171 156.422C340.08 156.807 339.876 157 339.559 157ZM345.135 138.402L342.143 149.282H348.297L345.271 138.402H345.135ZM360.464 135.716V156.422C360.464 156.807 360.271 157 359.886 157H357.744C357.358 157 357.166 156.807 357.166 156.422V135.716C357.166 135.331 357.358 135.138 357.744 135.138H359.886C360.271 135.138 360.464 135.331 360.464 135.716Z" fill="black"/>
</g>
<defs>
<clipPath id="clip0_2_16">
<rect width="400" height="400" fill="white"/>
</clipPath>
</defs>
</svg>
